<?xml version="1.0" encoding="UTF-8"?>
<svg width="86px" height="57px" viewBox="0 0 86 57" version="1.1" xmlns="http://www.w3.org/2000/svg" xmlns:xlink="http://www.w3.org/1999/xlink">
    <!-- Generator: Sketch 55.2 (78181) - https://sketchapp.com -->
    <title>Group</title>
    <desc>Created with Sketch.</desc>
    <defs>
        <polygon id="path-1" points="0.0001 0.34 42.6601 0.34 42.6601 57 0.0001 57"></polygon>
    </defs>
    <g id="Page-1" stroke="none" stroke-width="1" fill="none" fill-rule="evenodd">
        <g id="Desktop" transform="translate(-251.000000, -568.000000)">
            <g id="Group" transform="translate(251.000000, 567.660000)">
                <g id="Group-3">
                    <mask id="mask-2" fill="white">
                        <use xlink:href="#path-1"></use>
                    </mask>
                    <g id="Clip-2"></g>
                    <path d="M42.6601,53.1105 C38.4601,55.5805 33.5601,57.0005 28.3301,57.0005 C12.6801,57.0005 0.0001,44.3205 0.0001,28.6705 C0.0001,13.0195 12.6801,0.3395 28.3301,0.3395 C33.5601,0.3395 38.4601,1.7595 42.6601,4.2295 C34.2801,9.1505 28.6601,18.2505 28.6601,28.6705 C28.6601,39.0895 34.2801,48.1895 42.6601,53.1105" id="Fill-1" fill="#FFEA00" mask="url(#mask-2)"></path>
                </g>
                <path d="M56.6601,28.67 C56.6601,39.09 51.0401,48.19 42.6601,53.11 C34.2801,48.19 28.6601,39.09 28.6601,28.67 C28.6601,18.25 34.2801,9.15 42.6601,4.23 C51.0401,9.15 56.6601,18.25 56.6601,28.67" id="Fill-4" fill="#00FF22"></path>
                <path d="M85.33,28.67 C85.33,44.32 72.64,57 57,57 C51.76,57 46.87,55.58 42.66,53.11 C51.04,48.19 56.66,39.09 56.66,28.67 C56.66,18.25 51.04,9.15 42.66,4.23 C46.87,1.76 51.76,0.34 57,0.34 C72.64,0.34 85.33,13.02 85.33,28.67" id="Fill-6" fill="#0031FF"></path>
            </g>
        </g>
    </g>
</svg>