<?xml version="1.0" encoding="UTF-8"?>
<svg width="82px" height="82px" viewBox="0 0 82 82" version="1.1" xmlns="http://www.w3.org/2000/svg" xmlns:xlink="http://www.w3.org/1999/xlink">
    <!-- Generator: Sketch 55.2 (78181) - https://sketchapp.com -->
    <title>noun_Image_655983</title>
    <desc>Created with Sketch.</desc>
    <g id="Page-1" stroke="none" stroke-width="1" fill="none" fill-rule="evenodd">
        <g id="noun_Image_655983" fill="#00CC81" fill-rule="nonzero">
            <path d="M74.3,0.4 L7.7,0.4 C3.7,0.4 0.4,3.7 0.4,7.7 L0.4,74.4 C0.4,78.4 3.7,81.7 7.7,81.7 L74.4,81.7 C78.4,81.7 81.7,78.4 81.7,74.4 L81.7,7.7 C81.6,3.6 78.4,0.4 74.3,0.4 Z M7.7,6.6 L74.4,6.6 C75,6.6 75.4,7.1 75.4,7.6 L75.4,54.2 L55.7,34.6 C54.5,33.4 52.5,33.4 51.3,34.6 L32.7,53.2 L26.6,47.1 C25.4,45.9 23.4,45.9 22.2,47.1 L6.6,62.6 L6.6,7.6 C6.6,7.1 7.1,6.6 7.7,6.6 Z M6.6,74.3 L6.6,71.4 L24.3,53.7 L46,75.4 L7.7,75.4 C7.1,75.4 6.6,74.9 6.6,74.3 Z M74.3,75.4 L54.8,75.4 L37.1,57.7 L53.5,41.3 L75.4,63.2 L75.4,74.4 C75.4,74.9 74.9,75.4 74.3,75.4 Z" id="Shape"></path>
        </g>
    </g>
</svg>