<?xml version="1.0" encoding="UTF-8"?>
<svg width="62px" height="58px" viewBox="0 0 62 58" version="1.1" xmlns="http://www.w3.org/2000/svg" xmlns:xlink="http://www.w3.org/1999/xlink">
    <!-- Generator: Sketch 55.2 (78181) - https://sketchapp.com -->
    <title>link</title>
    <desc>Created with Sketch.</desc>
    <g id="Page-1" stroke="none" stroke-width="1" fill="none" fill-rule="evenodd">
        <g id="Desktop" transform="translate(-150.000000, -561.000000)" fill-rule="nonzero">
            <g id="link" transform="translate(150.000000, 561.000000)">
                <path d="M33.3315472,24.7533028 C32.6393168,25.4392019 32.6393168,26.5392289 33.3315472,27.2251281 C36.1918955,30.0593152 36.1918955,34.6664869 33.3315472,37.500674 L18.3114534,52.3833917 C15.4511052,55.2175789 10.8014066,55.2175789 7.94105827,52.3833917 L5.68151373,50.1445133 C2.82116544,47.3103262 2.82116544,42.7031545 5.68151373,39.8689674 L20.7016075,24.9862497 C21.3938379,24.3003505 21.3938379,23.2003235 20.7016075,22.5144244 C20.0093771,21.8285252 18.8991962,21.8285252 18.2069658,22.5144244 L3.18687207,37.3971421 C1.13630275,39.4289566 0,42.1337288 0,45.0067404 C0,47.879752 1.1232418,50.5845241 3.18687207,52.6163386 L5.44641661,54.855217 C7.56229069,56.951739 10.3442733,58 13.1262559,58 C15.9082384,58 18.690221,56.951739 20.8060951,54.855217 L35.8261889,39.9724993 C40.057937,35.7794554 40.057937,28.9463467 35.8261889,24.7533028 C35.1470194,24.0674036 34.0237776,24.0674036 33.3315472,24.7533028 Z" id="Path" fill="#062DDA"></path>
                <path d="M58.8251256,5.38317757 L56.5648241,3.14450036 C52.3316583,-1.04816679 45.4331658,-1.04816679 41.2,3.14450036 L26.1748744,18.0258807 C21.9417085,22.2185478 21.9417085,29.0510424 26.1748744,33.2437096 C26.8673367,33.9295471 27.9778894,33.9295471 28.6703518,33.2437096 C29.3628141,32.557872 29.3628141,31.4579439 28.6703518,30.7721064 C25.8090452,27.938174 25.8090452,23.3314162 28.6703518,20.4974838 L43.6954774,5.61610352 C46.5567839,2.7821711 51.2080402,2.7821711 54.0693467,5.61610352 L56.3296482,7.85478073 C59.1909548,10.6887132 59.1909548,15.2954709 56.3296482,18.1294033 L41.3045226,33.0107836 C40.6120603,33.6966211 40.6120603,34.7965492 41.3045226,35.4823868 C41.6442211,35.8188354 42.1015075,36 42.5457286,36 C42.9899497,36 43.4472362,35.8317757 43.7869347,35.4823868 L58.8120603,20.6010065 C60.8633166,18.5693746 62,15.8648454 62,12.992092 C62,10.1193386 60.8763819,7.41480949 58.8251256,5.38317757 Z" id="Path" fill="#6500CE"></path>
            </g>
        </g>
    </g>
</svg>